<svg xmlns="http://www.w3.org/2000/svg" width="199.121" height="173" viewBox="0 0 199.121 173">
  <g id="Done_Icon" data-name="Done Icon" transform="translate(-582.022 -346)">
    <ellipse id="Shadow" cx="83.5" cy="4.5" rx="83.5" ry="4.5" transform="translate(599 510)" fill="#2d4957" opacity="0.12"/>
    <circle id="Base" cx="83.5" cy="83.5" r="83.5" transform="translate(599 346)" fill="#2d4957"/>
    <path id="Checklist" d="M634.366,434.129l28.392,44.615,77.74-81.12" transform="translate(-5.432)" fill="none" stroke="#fff" stroke-linecap="round" stroke-width="10"/>
    <path id="Heart" d="M7.657,13.7l-.211-.17A71.235,71.235,0,0,1,1.268,7.819a4.771,4.771,0,0,1,0-6.478,4.174,4.174,0,0,1,6.131,0q.135.142.258.3c.081-.1.167-.2.257-.3a4.175,4.175,0,0,1,6.132,0,4.771,4.771,0,0,1,0,6.478,71.326,71.326,0,0,1-6.178,5.713Z" transform="translate(582.022 461)" fill="#f33077"/>
    <path id="Heart-2" data-name="Heart" d="M15.229,27.251l-.42-.337A141.677,141.677,0,0,1,2.522,15.551a9.488,9.488,0,0,1,0-12.883,8.3,8.3,0,0,1,12.195,0q.268.282.512.591c.162-.2.333-.4.511-.591a8.3,8.3,0,0,1,12.2,0,9.489,9.489,0,0,1,0,12.883A141.858,141.858,0,0,1,15.648,26.914Z" transform="translate(750.686 363.451)" fill="#f33077"/>
    <path id="Heart-3" data-name="Heart" d="M15.229,27.251l-.42-.337A141.677,141.677,0,0,1,2.522,15.551a9.488,9.488,0,0,1,0-12.883,8.3,8.3,0,0,1,12.195,0q.268.282.512.591c.162-.2.333-.4.511-.591a8.3,8.3,0,0,1,12.2,0,9.489,9.489,0,0,1,0,12.883A141.858,141.858,0,0,1,15.648,26.914Z" transform="translate(676.272 370.373)" fill="#f33077"/>
    <path id="Heart-4" data-name="Heart" d="M3.868,6.922l-.107-.086A35.986,35.986,0,0,1,.641,3.95a2.41,2.41,0,0,1,0-3.272,2.109,2.109,0,0,1,3.1,0q.068.072.13.15c.041-.052.085-.1.13-.15a2.109,2.109,0,0,1,3.1,0,2.41,2.41,0,0,1,0,3.272A36.032,36.032,0,0,1,3.975,6.836Z" transform="translate(589.515 363.451)" fill="#f33077"/>
    <path id="Heart-5" data-name="Heart" d="M3.828,6.851l-.106-.085A35.617,35.617,0,0,1,.634,3.909a2.385,2.385,0,0,1,0-3.239A2.087,2.087,0,0,1,3.7.671q.067.071.129.149c.041-.051.084-.1.128-.149a2.087,2.087,0,0,1,3.066,0,2.386,2.386,0,0,1,0,3.239A35.663,35.663,0,0,1,3.934,6.766Z" transform="translate(728.686 467.851)" fill="#f33077"/>
    <path id="Heart-6" data-name="Heart" d="M11,19.684l-.3-.244a102.339,102.339,0,0,1-8.875-8.208,6.853,6.853,0,0,1,0-9.306,6,6,0,0,1,8.809,0q.194.2.37.427c.117-.148.241-.291.369-.427a6,6,0,0,1,8.81,0,6.855,6.855,0,0,1,0,9.306A102.47,102.47,0,0,1,11.3,19.441Z" transform="translate(602.686 377.939)" fill="#f33077"/>
    <path id="Heart-7" data-name="Heart" d="M7.368,13.185l-.2-.163a68.55,68.55,0,0,1-5.945-5.5,4.591,4.591,0,0,1,0-6.233,4.017,4.017,0,0,1,5.9,0q.13.136.248.286c.078-.1.161-.2.247-.286a4.018,4.018,0,0,1,5.9,0,4.591,4.591,0,0,1,0,6.233,68.638,68.638,0,0,1-5.945,5.5Z" transform="translate(754.915 485.243)" fill="#f33077"/>
  </g>
</svg>
