<svg xmlns="http://www.w3.org/2000/svg" width="293.84" height="142.836" viewBox="0 0 293.84 142.836">
  <g id="Deliver_Icon" data-name="Deliver Icon" transform="translate(-593.95 -378.045)">
    <path id="Effect" d="M631.786,471.8s.979,13.511,7.74,16.906,21.914,5.229,21.914,5.229l195.695-5.229L803.4,477.492l-79.071,2.017Z" fill="#2d4957"/>
    <g id="Front" transform="translate(799.29 401.045)" fill="#fff">
      <path d="M 61.06349563598633 86.69606781005859 L 10.13004684448242 80.01551055908203 L 10.06530570983887 80.00701904296875 L 10 80.00701904296875 C 5.037388324737549 80.00701904296875 1 75.7158203125 1 70.44120788574219 L 1 10.56581878662109 C 1 5.323400974273682 4.987821102142334 1.052432060241699 9.90880298614502 1.000491380691528 C 10.58205986022949 1.129460573196411 14.95896911621094 1.992857217788696 20.86103439331055 3.72913646697998 C 26.74571800231934 5.460289478302002 35.39529418945313 8.43846607208252 43.18341064453125 12.79538345336914 C 52.21937561035156 17.85038375854492 58.16090774536133 21.56208992004395 62.44834136962891 24.83027839660645 C 67.45925903320313 28.64995956420898 70 31.77726554870605 70 34.12532424926758 L 70 77.13047790527344 C 70 82.38255310058594 65.99697875976563 86.65961456298828 61.06349563598633 86.69606781005859 Z" stroke="none"/>
      <path d="M 9.821464538574219 2.002098083496094 C 5.492507934570313 2.104286193847656 2 5.906608581542969 2 10.56582641601563 L 2 70.44120025634766 C 2 75.16441345214844 5.588790893554688 79.00702667236328 10 79.00702667236328 L 10.13059997558594 79.00702667236328 L 10.26010131835938 79.02400970458984 L 61.12298202514648 85.69530487060547 C 65.47754669189453 85.62445831298828 69 81.80957794189453 69 77.13047027587891 L 69 34.12532424926758 C 69 33.20735931396484 68.41963958740234 32.00718688964844 67.32166290283203 30.65454864501953 C 66.11781311035156 29.1714973449707 64.27422332763672 27.47949981689453 61.84211349487305 25.62556076049805 C 57.59357452392578 22.38703918457031 51.68844985961914 18.69921112060547 42.69517517089844 13.66809844970703 C 34.99651336669922 9.361221313476563 26.43299865722656 6.411895751953125 20.60476303100586 4.696113586425781 C 14.97182083129883 3.037826538085938 10.73651504516602 2.18023681640625 9.821464538574219 2.002098083496094 M 10 0 C 10 0 28.42162322998047 3.391326904296875 43.67162322998047 11.92266082763672 C 58.92162322998047 20.45398712158203 71 28.28997421264648 71 34.12532424926758 L 71 77.13047027587891 C 71 82.9658203125 66.52285003662109 87.69629669189453 61 87.69629669189453 L 10 81.00702667236328 C 4.477149963378906 81.00702667236328 0 76.27653503417969 0 70.44120025634766 L 0 10.56582641601563 C 0 4.730476379394531 4.477149963378906 0 10 0 Z" stroke="none" fill="#2d4957"/>
    </g>
    <g id="Front_Wheels" data-name="Front Wheels">
      <g id="Base">
        <g id="Ellipse_14" data-name="Ellipse 14" transform="translate(818.29 473.045)" fill="#2d4957" stroke="#fff" stroke-width="2">
          <circle cx="18" cy="18" r="18" stroke="none"/>
          <circle cx="18" cy="18" r="17" fill="none"/>
        </g>
        <path id="Path_54" data-name="Path 54" d="M14-.771A14.169,14.169,0,0,1,28,13,14.2,14.2,0,0,1,14,26.81,14.2,14.2,0,0,1,0,13,14.169,14.169,0,0,1,14-.771Z" transform="translate(822.29 478.045)" fill="#fff"/>
        <path id="Path_57" data-name="Path 57" d="M684.573,505.825c2.707,1.068,17.081,9.316,17.081,9.316l-34.607-12.6S681.865,504.757,684.573,505.825Z" transform="translate(18.59 264.95) rotate(-20)" fill="#2d4957" opacity="0.12"/>
      </g>
      <g id="Effect-2" data-name="Effect" transform="translate(827.627 480.832)">
        <path id="Path_58" data-name="Path 58" d="M677.438,483.316a8.946,8.946,0,0,0-2.606-2.988c-.067-.045-.135-.089-.474-.293a11.775,11.775,0,0,0-3.588-1.241" transform="translate(-659.902 -478.795)" fill="none" stroke="#2d4957" stroke-linecap="round" stroke-width="1.5"/>
        <path id="Path_59" data-name="Path 59" d="M670.77,478.795a8.946,8.946,0,0,0,2.606,2.988c.067.045.135.089.474.293a11.775,11.775,0,0,0,3.588,1.241" transform="translate(-670.77 -461.995)" fill="none" stroke="#2d4957" stroke-linecap="round" stroke-width="1.5"/>
        <g id="Ellipse_15" data-name="Ellipse 15" transform="translate(6.873 8.213)" fill="#2d4957" stroke="#2d4957" stroke-width="1">
          <circle cx="2" cy="2" r="2" stroke="none"/>
          <circle cx="2" cy="2" r="1.5" fill="none"/>
        </g>
      </g>
    </g>
    <g id="Rear_Wheels" data-name="Rear Wheels">
      <g id="Base-2" data-name="Base">
        <g id="Ellipse_13" data-name="Ellipse 13" transform="translate(661.29 473.045)" fill="#2d4957" stroke="#fff" stroke-width="2">
          <circle cx="18" cy="18" r="18" stroke="none"/>
          <circle cx="18" cy="18" r="17" fill="none"/>
        </g>
        <path id="Path_55" data-name="Path 55" d="M14-.771A14.169,14.169,0,0,1,28,13,14.2,14.2,0,0,1,14,26.81,14.2,14.2,0,0,1,0,13,14.169,14.169,0,0,1,14-.771Z" transform="translate(665.29 478.045)" fill="#fff"/>
        <path id="Path_56" data-name="Path 56" d="M684.573,505.825c2.707,1.068,17.081,9.316,17.081,9.316l-34.607-12.6S681.865,504.757,684.573,505.825Z" transform="translate(-136.452 263.957) rotate(-20)" fill="#2d4957" opacity="0.12"/>
      </g>
      <g id="Effect-3" data-name="Effect">
        <path id="Path_58-2" data-name="Path 58" d="M670.77,483.316a8.946,8.946,0,0,1,2.606-2.988c.067-.045.135-.089.474-.293a11.775,11.775,0,0,1,3.588-1.241" transform="translate(-0.143 2.037)" fill="none" stroke="#2d4957" stroke-linecap="round" stroke-width="1.5"/>
        <path id="Path_59-2" data-name="Path 59" d="M677.438,478.795a8.946,8.946,0,0,1-2.606,2.988c-.067.045-.135.089-.474.293a11.775,11.775,0,0,1-3.588,1.241" transform="translate(10.725 18.837)" fill="none" stroke="#2d4957" stroke-linecap="round" stroke-width="1.5"/>
        <g id="Ellipse_15-2" data-name="Ellipse 15" transform="translate(677.29 489.045)" fill="#2d4957" stroke="#2d4957" stroke-width="1">
          <circle cx="2" cy="2" r="2" stroke="none"/>
          <circle cx="2" cy="2" r="1.5" fill="none"/>
        </g>
      </g>
    </g>
    <line id="Line" x2="274" transform="translate(612.79 508.545)" fill="none" stroke="#2d4957" stroke-linecap="round" stroke-width="2"/>
    <g id="Window">
      <g id="Window-2" data-name="Window" transform="translate(805.29 416.47)" fill="#fff" stroke-linecap="round" stroke-linejoin="bevel">
        <path d="M 52.66918563842773 33.88875198364258 C 49.80768585205078 33.88875198364258 39.38345718383789 31.95449066162109 31.0074348449707 30.4002799987793 C 24.96382522583008 29.27886962890625 19.744384765625 28.31036949157715 17.54683494567871 28.07187080383301 C 12.63940525054932 27.53924942016602 9.936765670776367 24.64113998413086 9.936765670776367 19.91139030456543 L 9.967075347900391 9.113840103149414 C 9.967075347900391 6.749280452728271 10.39954566955566 4.64879035949707 11.18481540679932 3.196470260620117 C 12.10280513763428 1.49871039390564 13.45174503326416 0.6734103560447693 15.30871486663818 0.6734103560447693 C 15.89828491210938 0.6734103560447693 16.54486465454102 0.7588803768157959 17.2304859161377 0.9274603724479675 C 24.21862602233887 2.64564037322998 32.82648468017578 6.730650424957275 38.55200576782227 9.980690002441406 C 45.2385368347168 13.77624034881592 50.27297592163086 17.45337104797363 54.71736526489258 20.86164093017578 C 56.96997451782227 22.5890998840332 56.99045562744141 26.15610122680664 56.25849533081055 28.91827011108398 C 55.49224472045898 31.80982971191406 53.98906707763672 33.74057006835938 53.03579711914063 33.87113952636719 C 52.98778533935547 33.87771987915039 52.87631607055664 33.88875198364258 52.66918563842773 33.88875198364258 Z" stroke="none"/>
        <path d="M 15.3087158203125 1.673410415649414 C 13.83265686035156 1.673410415649414 12.80176544189453 2.308509826660156 12.0644645690918 3.672100067138672 C 11.35680389404297 4.980880737304688 10.96707534790039 6.912460327148438 10.96707534790039 9.111030578613281 L 10.96706390380859 9.116640090942383 L 10.936767578125 19.91325187683105 C 10.93733215332031 24.12356567382813 13.26034164428711 26.60076904296875 17.65473556518555 27.07770919799805 C 19.88976669311523 27.32028007507324 25.12638473510742 28.29195976257324 31.18989562988281 29.41706085205078 C 39.52560424804688 30.96379089355469 49.89966583251953 32.88874053955078 52.66917419433594 32.88874053955078 C 52.79541015625 32.88874053955078 52.86276245117188 32.88396453857422 52.88813400268555 32.88162994384766 C 53.03049850463867 32.83329391479492 53.53364562988281 32.48870086669922 54.13626480102539 31.48246002197266 C 54.75346374511719 30.45183944702148 55.2342643737793 29.14018058776855 55.49006652832031 27.7890796661377 C 55.74672698974609 26.43353080749512 55.756103515625 25.14860153198242 55.51719665527344 24.07321929931641 C 55.27943420410156 23.0030517578125 54.80559539794922 22.18950080871582 54.10882568359375 21.65517044067383 C 49.69290542602539 18.26872062683105 44.69209289550781 14.61593055725098 38.05834579467773 10.85034942626953 C 32.39105606079102 7.633359909057617 23.88071441650391 3.592340469360352 16.99173355102539 1.898540496826172 C 16.3841438293457 1.749151229858398 15.81789398193359 1.673410415649414 15.3087158203125 1.673410415649414 M 15.30871200561523 -0.3265914916992188 C 15.96551132202148 -0.3265914916992188 16.68361282348633 -0.2367820739746094 17.46924591064453 -0.04362106323242188 C 24.10076522827148 1.586879730224609 32.56957626342773 5.434940338134766 39.045654296875 9.111030578613281 C 45.52172470092773 12.78711128234863 50.44804382324219 16.32743072509766 55.32589721679688 20.06811141967773 C 60.20374298095703 23.80878067016602 56.54685592651367 34.39955139160156 53.17150497436523 34.86188125610352 C 53.03924560546875 34.87999725341797 52.87057495117188 34.88874053955078 52.66917419433594 34.88874053955078 C 47.73069000244141 34.88874053955078 22.81299591064453 29.64929389953613 17.43893432617188 29.06603050231934 C 11.84570693969727 28.45898056030273 8.936763763427734 24.96736145019531 8.936763763427734 19.91139030456543 L 8.967075347900391 9.111030578613281 C 8.967075347900391 4.654027938842773 10.42145538330078 -0.3265914916992188 15.30871200561523 -0.3265914916992188 Z" stroke="none" fill="#2d4957"/>
      </g>
      <path id="Shadow" d="M10.127-2.491c5,1.359,16.625,6.965,21.507,10.028a85.39,85.39,0,0,1,11.228,8.217c3.677,3.117,1.967,5.426-.578,5.811s-22.72-4.323-26.937-4.829S8.938,13.321,8.938,9.108L8.96,7.537C8.96,3.324,5.128-3.85,10.127-2.491Z" transform="translate(806.05 428.713)" fill="#2d4957" opacity="0.13"/>
    </g>
    <g id="Back">
      <g id="Base-3" data-name="Base" transform="translate(631.29 378.045)" fill="#fff" stroke="#2d4957" stroke-width="2">
        <rect width="170" height="106" rx="10" stroke="none"/>
        <rect x="1" y="1" width="168" height="104" rx="9" fill="none"/>
      </g>
      <g id="Pattern_1" data-name="Pattern 1" transform="translate(52.29 62.045)">
        <line id="Line_20" data-name="Line 20" x2="33" transform="translate(594.5 393.5)" fill="none" stroke="#2d4957" stroke-linecap="round" stroke-width="2"/>
        <line id="Line_23" data-name="Line 23" x2="13" transform="translate(631.5 393.5)" fill="none" stroke="#2d4957" stroke-linecap="round" stroke-width="2"/>
        <line id="Line_25" data-name="Line 25" x2="9.5" transform="translate(711 393.5)" fill="none" stroke="#2d4957" stroke-linecap="round" stroke-width="2"/>
        <line id="Line_26" data-name="Line 26" x2="11" transform="translate(724.5 393.5)" fill="none" stroke="#2d4957" stroke-linecap="round" stroke-width="2"/>
        <line id="Line_24" data-name="Line 24" x2="58.5" transform="translate(648 393.5)" fill="none" stroke="#2d4957" stroke-linecap="round" stroke-width="2"/>
      </g>
      <g id="Text">
        <rect id="Base-4" data-name="Base" width="170" height="30" transform="translate(631.29 418.045)" fill="#f33077"/>
        <text id="Abang_berangkat_dulu_ya_neng" data-name="Abang berangkat 
dulu ya neng" transform="translate(718.29 430.045)" fill="#fff" font-size="10" font-family="FuturaPT-Heavy, Futura PT" font-weight="800" letter-spacing="0.05em"><tspan x="-52.335" y="0">ABANG BERANGKAT </tspan><tspan x="-38.28" y="12">DULU YA NENG</tspan></text>
      </g>
      <g id="Pattern_2" data-name="Pattern 2" transform="translate(646.79 407.545)">
        <line id="Line_20-2" data-name="Line 20" x1="33" transform="translate(108)" fill="none" stroke="#2d4957" stroke-linecap="round" stroke-width="2"/>
        <line id="Line_23-2" data-name="Line 23" x1="13" transform="translate(91)" fill="none" stroke="#2d4957" stroke-linecap="round" stroke-width="2"/>
        <line id="Line_25-2" data-name="Line 25" x1="9.5" transform="translate(15)" fill="none" stroke="#2d4957" stroke-linecap="round" stroke-width="2"/>
        <line id="Line_26-2" data-name="Line 26" x1="11" fill="none" stroke="#2d4957" stroke-linecap="round" stroke-width="2"/>
        <line id="Line_24-2" data-name="Line 24" x1="58.5" transform="translate(29)" fill="none" stroke="#2d4957" stroke-linecap="round" stroke-width="2"/>
      </g>
    </g>
    <g id="Wind_Effect" data-name="Wind Effect" transform="translate(52.29 6.045)">
      <path id="Path_63" data-name="Path 63" d="M0-1.248a7.108,7.108,0,0,1,3.691-.487c2.6.148,3.253,1.079,6.727,1.079s3.9-1.079,7.172-1.079S20.3-.657,23.492-.657s3.9-1.079,6.854-1.079,2.3.957,4.95,1.079a23.921,23.921,0,0,0,5.648-.591" transform="translate(554.5 469.559)" fill="none" stroke="#2d4957" stroke-linecap="round" stroke-width="2"/>
      <path id="Path_61" data-name="Path 61" d="M0-1.248a7.108,7.108,0,0,1,3.691-.487c2.6.148,3.253,1.079,6.727,1.079s3.9-1.079,7.172-1.079S20.3-.657,23.492-.657s3.9-1.079,6.854-1.079,2.3.957,4.95,1.079a23.921,23.921,0,0,0,5.648-.591" transform="translate(549.028 418.886)" fill="none" stroke="#2d4957" stroke-linecap="round" stroke-width="2"/>
      <path id="Path_65" data-name="Path 65" d="M0-1.248a7.108,7.108,0,0,1,3.691-.487c2.6.148,3.253,1.079,6.727,1.079s3.9-1.079,7.172-1.079S20.3-.657,23.492-.657s3.9-1.079,6.854-1.079,2.3.957,4.95,1.079a23.921,23.921,0,0,0,5.648-.591" transform="translate(543.028 443.886)" fill="none" stroke="#2d4957" stroke-linecap="round" stroke-width="2"/>
      <path id="Path_64" data-name="Path 64" d="M0-1.248a7.108,7.108,0,0,1,3.691-.487c2.6.148,3.253,1.079,6.727,1.079s3.9-1.079,7.172-1.079S20.3-.657,23.492-.657s3.9-1.079,6.854-1.079,2.3.957,4.95,1.079a23.921,23.921,0,0,0,5.648-.591" transform="translate(562.028 388.213)" fill="none" stroke="#2d4957" stroke-linecap="round" stroke-width="2"/>
    </g>
  </g>
</svg>
