<svg xmlns="http://www.w3.org/2000/svg" width="37" height="37" viewBox="0 0 37 37">
  <g id="Discount_Icon" data-name="Discount Icon" transform="translate(31.775 14.361) rotate(135)">
    <g id="Ellipse_8" data-name="Ellipse 8" transform="translate(12.313 32.623) rotate(-135)" fill="#fff" stroke="#2d4957" stroke-width="2">
      <circle cx="18.5" cy="18.5" r="18.5" stroke="none"/>
      <circle cx="18.5" cy="18.5" r="17.5" fill="none"/>
    </g>
    <g id="Body" transform="translate(4.501 0.674)" fill="#fff" stroke-linecap="round" stroke-linejoin="round">
      <path d="M 18.03285217285156 11.74310874938965 C 12.59716796875 11.74174118041992 5.89713716506958 11.15991878509521 3.372428178787231 9.530401229858398 C 2.17516827583313 8.757660865783691 0.7483381628990173 7.55471134185791 0.7500281929969788 6.212211132049561 C 0.7517181634902954 4.872591018676758 2.176198244094849 3.677301168441772 3.370888233184814 2.910471200942993 C 4.655218124389648 2.086111068725586 7.15505838394165 1.459751129150391 10.60016822814941 1.099111080169678 C 13.50188827514648 0.7953611612319946 16.36422729492188 0.7500011324882507 17.81217765808105 0.7500011324882507 C 17.88992309570313 0.7500011324882507 17.96360778808594 0.7501344084739685 18.03292274475098 0.7503658533096313 L 18.03285217285156 11.74310874938965 Z" stroke="none"/>
      <path d="M 17.28285789489746 10.98892307281494 L 17.28291893005371 1.50180983543396 C 12.13885688781738 1.536893010139465 6.042920589447021 2.086597442626953 3.776018142700195 3.541641235351563 C 2.309308290481567 4.48306131362915 1.501018166542053 5.431831359863281 1.500028133392334 6.213150978088379 C 1.499048233032227 6.996731281280518 2.308448076248169 7.95103120803833 3.779148101806641 8.900260925292969 C 4.628757953643799 9.448620796203613 6.559428215026855 10.19707107543945 10.93222808837891 10.64854145050049 C 13.37709426879883 10.90095806121826 15.75062942504883 10.97258377075195 17.28285789489746 10.98892307281494 M 18.05159950256348 12.4931058883667 C 15.40807437896729 12.4931001663208 6.327958106994629 12.33062934875488 2.965718269348145 10.16055107116699 C -0.9885517954826355 7.60836124420166 -0.9885318279266357 4.817420959472656 2.965768098831177 2.279301166534424 C 6.233182430267334 0.182067945599556 14.8997220993042 3.674926801977563e-06 17.81217765808105 3.674926801977563e-06 C 18.4244441986084 3.674926801977563e-06 18.78292846679688 0.008061136119067669 18.78292846679688 0.008061136119067669 L 18.7828483581543 12.48807144165039 C 18.7828483581543 12.48807144165039 18.51707649230957 12.49310684204102 18.05159950256348 12.4931058883667 Z" stroke="none" fill="#2d4957"/>
    </g>
    <g id="Percent" transform="translate(14.141 3.737)">
      <line id="Line_8" data-name="Line 8" x2="5.899" y2="5.907" transform="translate(0.45 0.042)" fill="none" stroke="#2d4957" stroke-linecap="round" stroke-width="0.75"/>
      <g id="Ellipse_6" data-name="Ellipse 6" transform="translate(0.045 3.612)" fill="#fff" stroke="#2d4957" stroke-width="0.75">
        <circle cx="1.219" cy="1.219" r="1.219" stroke="none"/>
        <circle cx="1.219" cy="1.219" r="0.844" fill="none"/>
      </g>
      <g id="Ellipse_7" data-name="Ellipse 7" transform="translate(4.191 -0.075)" fill="#fff" stroke="#2d4957" stroke-width="0.75">
        <circle cx="1.219" cy="1.219" r="1.219" stroke="none"/>
        <circle cx="1.219" cy="1.219" r="0.844" fill="none"/>
      </g>
    </g>
    <g id="Ring" transform="translate(1.342 3.127)" fill="#fff" stroke="#2d4957" stroke-width="1.5">
      <circle cx="3.657" cy="3.657" r="3.657" stroke="none"/>
      <circle cx="3.657" cy="3.657" r="2.907" fill="none"/>
    </g>
  </g>
</svg>
