<svg xmlns="http://www.w3.org/2000/svg" width="167.119" height="159.698" viewBox="0 0 167.119 159.698">
  <g id="Icon_Packing" data-name="Icon Packing" transform="translate(-718.29 -106.683) rotate(-19)">
    <g id="Shadow" transform="translate(618.003 487.47)">
      <line id="Line_17" data-name="Line 17" x2="117.672" transform="translate(0 0) rotate(19)" fill="none" stroke="#2d4957" stroke-linecap="round" stroke-width="2"/>
      <line id="Line_18" data-name="Line 18" x2="85.064" transform="translate(15.58 11.362) rotate(19)" fill="none" stroke="#2d4957" stroke-linecap="round" stroke-width="2"/>
    </g>
    <path id="Shadow-2" data-name="Shadow" d="M-2939.531,9831.128s87.583-15.317,93.729-18.794,6.716-8.979,6.842-13.354-2.016-10.735-.93-5.445S-2939.531,9831.128-2939.531,9831.128Z" transform="translate(6622.73 -7858.966) rotate(19)" fill="#2d4957" stroke="#2d4957" stroke-width="1" opacity="0.12"/>
    <g id="Box" transform="translate(643.518 372)" fill="#fff" stroke="#2d4957" stroke-width="2">
      <rect width="109.166" height="109.166" rx="5" stroke="none"/>
      <rect x="1" y="1" width="107.166" height="107.166" rx="4" fill="none"/>
    </g>
    <g id="Cross">
      <g id="Rectangle_597" data-name="Rectangle 597" transform="translate(647.694 420.664)" fill="#2d4957" stroke="#fff" stroke-width="1">
        <rect width="99.242" height="11.342" stroke="none"/>
        <rect x="0.5" y="0.5" width="98.242" height="10.342" fill="none"/>
      </g>
      <g id="Rectangle_598" data-name="Rectangle 598" transform="translate(703.391 376.164) rotate(90)" fill="#2d4957" stroke="#fff" stroke-width="1">
        <rect width="100.137" height="10.714" stroke="none"/>
        <rect x="0.5" y="0.5" width="99.137" height="9.714" fill="none"/>
      </g>
    </g>
    <path id="Ribbon" d="M658.9,434.171l11.65-20.144s-9.575-12.57-13.8-11.786-3.112,14.92-3.112,14.92h35.188s-.909-13.736-5.027-14.92-13.245,11.786-13.245,11.786h0c.239-.746,11.091,20.144,11.091,20.144" transform="translate(27.793 10.11)" fill="none" stroke="#f33077" stroke-linecap="round" stroke-linejoin="round" stroke-width="4"/>
    <g id="Blink" transform="translate(622.152 378.113)">
      <g id="Blink-blink" transform="translate(8.294 0) rotate(19)">
        <path id="Path_47" data-name="Path 47" d="M.132,16.2S5.1,10.758,4.639,6A6.7,6.7,0,0,0,0,0" transform="translate(20.74 12.593) rotate(141)" fill="none" stroke="#2d4957" stroke-linecap="round" stroke-linejoin="round" stroke-width="1"/>
        <path id="Path_48" data-name="Path 48" d="M.132,0S5.1,5.446,4.639,10.2A6.7,6.7,0,0,1,0,16.2" transform="translate(10.199 0) rotate(39)" fill="none" stroke="#2d4957" stroke-linecap="round" stroke-linejoin="round" stroke-width="1"/>
        <path id="Path_49" data-name="Path 49" d="M.132,0S5.1,5.446,4.639,10.2A6.7,6.7,0,0,1,0,16.2" transform="translate(10.542 25.473) rotate(-141)" fill="none" stroke="#2d4957" stroke-linecap="round" stroke-linejoin="round" stroke-width="1"/>
        <path id="Path_50" data-name="Path 50" d="M.132,16.2S5.1,10.758,4.639,6A6.7,6.7,0,0,0,0,0" transform="translate(0 12.883) rotate(-39)" fill="none" stroke="#2d4957" stroke-linecap="round" stroke-linejoin="round" stroke-width="1"/>
      </g>
      <g id="Blink-blink-2" data-name="Blink-blink" transform="translate(132.871 15.828) rotate(19)">
        <path id="Path_47-2" data-name="Path 47" d="M.133,16.279S5.128,10.808,4.66,6.028A6.732,6.732,0,0,0,0,0" transform="translate(20.836 12.651) rotate(141)" fill="none" stroke="#2d4957" stroke-linecap="round" stroke-linejoin="round" stroke-width="1"/>
        <path id="Path_48-2" data-name="Path 48" d="M.133,0S5.128,5.471,4.66,10.252A6.732,6.732,0,0,1,0,16.279" transform="translate(10.246 0) rotate(39)" fill="none" stroke="#2d4957" stroke-linecap="round" stroke-linejoin="round" stroke-width="1"/>
        <path id="Path_49-2" data-name="Path 49" d="M.133,0S5.128,5.471,4.66,10.252A6.732,6.732,0,0,1,0,16.279" transform="translate(10.591 25.591) rotate(-141)" fill="none" stroke="#2d4957" stroke-linecap="round" stroke-linejoin="round" stroke-width="1"/>
        <path id="Path_50-2" data-name="Path 50" d="M.133,16.279S5.128,10.808,4.66,6.028A6.732,6.732,0,0,0,0,0" transform="translate(0 12.943) rotate(-39)" fill="none" stroke="#2d4957" stroke-linecap="round" stroke-linejoin="round" stroke-width="1"/>
      </g>
      <g id="Blink-blink-3" data-name="Blink-blink" transform="translate(43.166 76.036) rotate(19)">
        <path id="Path_47-3" data-name="Path 47" d="M.133,16.279S5.128,10.808,4.66,6.028A6.732,6.732,0,0,0,0,0" transform="translate(20.836 12.651) rotate(141)" fill="none" stroke="#2d4957" stroke-linecap="round" stroke-linejoin="round" stroke-width="1"/>
        <path id="Path_48-3" data-name="Path 48" d="M.133,0S5.128,5.471,4.66,10.252A6.732,6.732,0,0,1,0,16.279" transform="translate(10.246 0) rotate(39)" fill="none" stroke="#2d4957" stroke-linecap="round" stroke-linejoin="round" stroke-width="1"/>
        <path id="Path_49-3" data-name="Path 49" d="M.133,0S5.128,5.471,4.66,10.252A6.732,6.732,0,0,1,0,16.279" transform="translate(10.591 25.591) rotate(-141)" fill="none" stroke="#2d4957" stroke-linecap="round" stroke-linejoin="round" stroke-width="1"/>
        <path id="Path_50-3" data-name="Path 50" d="M.133,16.279S5.128,10.808,4.66,6.028A6.732,6.732,0,0,0,0,0" transform="translate(0 12.943) rotate(-39)" fill="none" stroke="#2d4957" stroke-linecap="round" stroke-linejoin="round" stroke-width="1"/>
      </g>
      <g id="Blink-blink-4" data-name="Blink-blink" transform="translate(143.369 79.801) rotate(19)">
        <path id="Path_47-4" data-name="Path 47" d="M.075,9.243S2.912,6.137,2.646,3.422A3.822,3.822,0,0,0,0,0" transform="translate(11.831 7.183) rotate(141)" fill="none" stroke="#2d4957" stroke-linecap="round" stroke-linejoin="round" stroke-width="0.75"/>
        <path id="Path_48-4" data-name="Path 48" d="M.075,0S2.912,3.106,2.646,5.821A3.822,3.822,0,0,1,0,9.243" transform="translate(5.818 0) rotate(39)" fill="none" stroke="#2d4957" stroke-linecap="round" stroke-linejoin="round" stroke-width="0.75"/>
        <path id="Path_49-4" data-name="Path 49" d="M.075,0S2.912,3.106,2.646,5.821A3.822,3.822,0,0,1,0,9.243" transform="translate(6.013 14.531) rotate(-141)" fill="none" stroke="#2d4957" stroke-linecap="round" stroke-linejoin="round" stroke-width="0.75"/>
        <path id="Path_50-4" data-name="Path 50" d="M.075,9.243S2.912,6.137,2.646,3.422A3.822,3.822,0,0,0,0,0" transform="translate(0 7.349) rotate(-39)" fill="none" stroke="#2d4957" stroke-linecap="round" stroke-linejoin="round" stroke-width="0.75"/>
      </g>
      <g id="Blink-blink-5" data-name="Blink-blink" transform="translate(10.648 49.47) rotate(19)">
        <path id="Path_47-5" data-name="Path 47" d="M.075,9.243S2.912,6.137,2.646,3.422A3.822,3.822,0,0,0,0,0" transform="translate(11.831 7.183) rotate(141)" fill="none" stroke="#2d4957" stroke-linecap="round" stroke-linejoin="round" stroke-width="0.75"/>
        <path id="Path_48-5" data-name="Path 48" d="M.075,0S2.912,3.106,2.646,5.821A3.822,3.822,0,0,1,0,9.243" transform="translate(5.818 0) rotate(39)" fill="none" stroke="#2d4957" stroke-linecap="round" stroke-linejoin="round" stroke-width="0.75"/>
        <path id="Path_49-5" data-name="Path 49" d="M.075,0S2.912,3.106,2.646,5.821A3.822,3.822,0,0,1,0,9.243" transform="translate(6.013 14.531) rotate(-141)" fill="none" stroke="#2d4957" stroke-linecap="round" stroke-linejoin="round" stroke-width="0.75"/>
        <path id="Path_50-5" data-name="Path 50" d="M.075,9.243S2.912,6.137,2.646,3.422A3.822,3.822,0,0,0,0,0" transform="translate(0 7.349) rotate(-39)" fill="none" stroke="#2d4957" stroke-linecap="round" stroke-linejoin="round" stroke-width="0.75"/>
      </g>
      <g id="Blink-blink-6" data-name="Blink-blink" transform="translate(102.119 19.378) rotate(19)">
        <path id="Path_47-6" data-name="Path 47" d="M.075,9.243S2.912,6.137,2.646,3.422A3.822,3.822,0,0,0,0,0" transform="translate(11.831 7.183) rotate(141)" fill="none" stroke="#2d4957" stroke-linecap="round" stroke-linejoin="round" stroke-width="0.75"/>
        <path id="Path_48-6" data-name="Path 48" d="M.075,0S2.912,3.106,2.646,5.821A3.822,3.822,0,0,1,0,9.243" transform="translate(5.818 0) rotate(39)" fill="none" stroke="#2d4957" stroke-linecap="round" stroke-linejoin="round" stroke-width="0.75"/>
        <path id="Path_49-6" data-name="Path 49" d="M.075,0S2.912,3.106,2.646,5.821A3.822,3.822,0,0,1,0,9.243" transform="translate(6.013 14.531) rotate(-141)" fill="none" stroke="#2d4957" stroke-linecap="round" stroke-linejoin="round" stroke-width="0.75"/>
        <path id="Path_50-6" data-name="Path 50" d="M.075,9.243S2.912,6.137,2.646,3.422A3.822,3.822,0,0,0,0,0" transform="translate(0 7.349) rotate(-39)" fill="none" stroke="#2d4957" stroke-linecap="round" stroke-linejoin="round" stroke-width="0.75"/>
      </g>
    </g>
  </g>
</svg>
