<svg xmlns="http://www.w3.org/2000/svg" width="193.161" height="145.203" viewBox="0 0 193.161 145.203">
  <g id="Payment_Icon" data-name="Payment Icon" transform="translate(-590.002 -355.632)">
    <path id="Shadow" d="M676.571,390.547c-1.688,3.769,24.651,68.014,24.651,68.014s0-.581,1.947,1-3.129,6.621-3.129,6.621,2.857-.182,5.442-.59,4.9-1.042,4.9-1.042l3.447-.953-22.435-69.773s-7.14,1.339-10.7.792S678.26,386.778,676.571,390.547Z" fill="#2d4957" opacity="0.12"/>
    <path id="Base" d="M599,412.309c59.238-30.333,78.844-22.565,78.844-22.565s-3.792,7.307,15.906,2.591,62.887-22.2,62.887-22.2l25.525,71.395s-51.882,19.7-73.985,24.416,8.6-9.618-14.427-5.549-77.684,21.825-77.684,21.825Z" fill="none" stroke="#2d4957" stroke-linejoin="round" stroke-width="2"/>
    <g id="Rp" transform="translate(-40 7)">
      <g id="Ellipse_12" data-name="Ellipse 12" transform="translate(667 405)" fill="none" stroke="#f33077" stroke-width="2">
        <circle cx="21" cy="21" r="21" stroke="none"/>
        <circle cx="21" cy="21" r="20" fill="none"/>
      </g>
      <text id="Rp-2" data-name="Rp" transform="matrix(0.966, -0.259, 0.259, 0.966, 675.823, 435.443)" fill="#f33077" font-size="26" font-family="FuturaPT-Medium, Futura PT" font-weight="500" letter-spacing="0.1em"><tspan x="0" y="0">Rp</tspan></text>
    </g>
    <g id="Effect">
      <line id="Line_11" data-name="Line 11" x1="15.5" y2="4.725" transform="translate(626.25 494.862)" fill="none" stroke="#2d4957" stroke-linecap="round" stroke-width="2"/>
      <line id="Line_10" data-name="Line 10" x1="76" y2="21" transform="translate(606.75 473.862)" fill="none" stroke="#2d4957" stroke-linecap="round" stroke-width="2"/>
      <line id="Line_12" data-name="Line 12" x1="15.5" y2="4.725" transform="translate(763.25 452.862)" fill="none" stroke="#2d4957" stroke-linecap="round" stroke-width="2"/>
      <line id="Line_16" data-name="Line 16" x1="15.5" y2="4.725" transform="translate(731.25 462.862)" fill="none" stroke="#2d4957" stroke-linecap="round" stroke-width="2"/>
      <line id="Line_13" data-name="Line 13" x1="15.5" y2="4.725" transform="translate(690.581 377.862)" fill="none" stroke="#2d4957" stroke-linecap="round" stroke-width="2"/>
      <line id="Line_14" data-name="Line 14" x1="76" y2="21" transform="translate(679 356.862)" fill="none" stroke="#2d4957" stroke-linecap="round" stroke-width="2"/>
      <line id="Line_15" data-name="Line 15" x1="15.5" y2="4.725" transform="translate(591.25 397.775)" fill="none" stroke="#2d4957" stroke-linecap="round" stroke-width="2"/>
    </g>
    <g id="Illustration">
      <path id="Torso" d="M731.458,420.4s1.174,1.035-.95,3.281-6.2,2.748-8.269,6,0,7.016,0,7.016L760.027,423.9s-2.918-5.881-6.544-7.192-4.746,1.636-7.959,1.945a4.746,4.746,0,0,1-4.564-1.945,10.292,10.292,0,0,1-1.762,3c-.914.825-1.639.942-3.525,1.1a11.375,11.375,0,0,1-4.215-.415Z" fill="#2d4957" stroke="#2d4957" stroke-linecap="round" stroke-linejoin="round" stroke-width="2"/>
      <path id="Neck" d="M740.882,416.709c1.134,1.226,1.859,4.139.771,5.941s-1.315,1.881-4.036,1.768a8.163,8.163,0,0,1-5.9-2.811c-.816-1.179,6.349-.726,6.349-.726Z" fill="#fff" stroke="#2d4957" stroke-linecap="round" stroke-width="1"/>
      <path id="Face" d="M727.367,419.245a1.06,1.06,0,0,0,1.238-.354l3.242,2.24a33.333,33.333,0,0,0,4.8.155c1.931-.147,1.7-.193,2.764-1.476s2.138-2.49,1.932-3.809-.828-1.709-1.3-3.772-.2-2.878-.472-4.009-6.6-9.138-6.6-9.138-2.225-1.417-3.184-1.356-1.017-.147-2.712.943A33.934,33.934,0,0,0,723,402.09s-.347.278-1.3,3.065,2.535,9.609,2.535,9.609a1.165,1.165,0,0,0-.531,1.238,6.227,6.227,0,0,0,1.356,1.945A9.548,9.548,0,0,0,727.367,419.245Z" transform="translate(-0.324)" fill="#fff" stroke="#2d4957" stroke-linecap="round" stroke-linejoin="round" stroke-width="1"/>
      <text id="Mouth" transform="matrix(0.391, 0.921, -0.921, 0.391, 732.36, 415.833)" fill="#2d4957" font-size="5" font-family="FuturaPT-Bold, Futura PT" font-weight="700" letter-spacing="0.1em"><tspan x="0" y="0">3</tspan></text>
      <path id="Left_Eye" data-name="Left Eye" d="M727.013,412.885h3.142l-.69,2.836" transform="matrix(0.985, 0.174, -0.174, 0.985, 83.189, -119.568)" fill="none" stroke="#2d4957" stroke-width="1"/>
      <path id="Right_Eye" data-name="Right Eye" d="M730.155,415.721h-3.142l.69-2.836" transform="translate(7 -3.924)" fill="none" stroke="#2d4957" stroke-width="1"/>
      <path id="Peci" d="M735.917,404.2a75,75,0,0,0-8.187,3.813,19.845,19.845,0,0,0-4.783,3.487s-1.685-3.308-1.725-4.509a8.334,8.334,0,0,1,1.476-4.884,26.1,26.1,0,0,1,5.033-4.176,4.128,4.128,0,0,1,2.427,0,15.166,15.166,0,0,1,2,1.234C732.716,399.652,735.917,404.2,735.917,404.2Z" fill="#2d4957" stroke="#2d4957" stroke-width="2"/>
    </g>
  </g>
</svg>
