<svg xmlns="http://www.w3.org/2000/svg" width="19.5" height="16.75" viewBox="0 0 19.5 16.75"><g transform="translate(0.75)"><g transform="translate(16.5 2.586) rotate(90)" fill="#fff" stroke-linecap="round"><path d="M 6.387711048126221 14.25 L 0.7500012516975403 14.25 L 0.7500012516975403 0.75 L 6.387711048126221 0.75 C 10.26205158233643 0.75 13.41406154632568 3.55374002456665 13.41406154632568 7 L 13.41406154632568 8 C 13.41406154632568 11.44626045227051 10.26205158233643 14.25 6.387711048126221 14.25 Z" stroke="none"/><path d="M 1.500000953674316 1.5 L 1.500000953674316 13.5 L 6.387711048126221 13.5 C 9.848501205444336 13.5 12.66406154632568 11.03271007537842 12.66406154632568 8 L 12.66406154632568 7 C 12.66406154632568 3.967289924621582 9.848501205444336 1.5 6.387711048126221 1.5 L 1.500000953674316 1.5 M 9.5367431640625e-07 0 L 6.387711048126221 0 C 10.68247127532959 0 14.16406154632568 3.134010314941406 14.16406154632568 7 L 14.16406154632568 8 C 14.16406154632568 11.86598968505859 10.68247127532959 15 6.387711048126221 15 L 9.5367431640625e-07 15 L 9.5367431640625e-07 0 Z" stroke="none" fill="#b14141"/></g><g transform="translate(6.5)" fill="#fff" stroke="#b14141" stroke-linecap="round" stroke-linejoin="round" stroke-width="1"><rect width="5" height="3" stroke="none"/><rect x="0.5" y="0.5" width="4" height="2" fill="none"/></g><line x2="18" transform="translate(0 2.743)" fill="none" stroke="#b14141" stroke-linecap="round" stroke-width="1.5"/><line y2="4" transform="translate(6.429 7.368)" fill="none" stroke="#b14141" stroke-linecap="round" stroke-width="1.5"/><line y2="6.133" transform="translate(9 6.367)" fill="none" stroke="#b14141" stroke-linecap="round" stroke-width="1.5"/><line y2="4" transform="translate(11.571 7.368)" fill="none" stroke="#b14141" stroke-linecap="round" stroke-width="1.5"/></g></svg>