<svg id="Edit_icon" data-name="Edit icon" xmlns="http://www.w3.org/2000/svg" width="31.684" height="32.103" viewBox="0 0 31.684 32.103">
  <g id="Polygon_1" data-name="Polygon 1" transform="translate(7.778 32.103) rotate(-135)" fill="none" stroke-linecap="round" stroke-linejoin="bevel">
    <path d="M4.624,1.593a1,1,0,0,1,1.752,0l3.809,6.925A1,1,0,0,1,9.309,10H1.691A1,1,0,0,1,.815,8.518Z" stroke="none"/>
    <path d="M 5.499960422515869 4.150069713592529 L 3.382541179656982 7.999917030334473 L 7.617384433746338 7.999917030334473 L 5.499960422515869 4.150069713592529 M 5.499962329864502 1.075032234191895 C 5.843088626861572 1.075032234191895 6.186213970184326 1.247727394104004 6.376173973083496 1.593116760253906 L 10.18487358093262 8.517996788024902 C 10.55142402648926 9.184447288513184 10.06925392150879 9.999917030334473 9.308653831481934 9.999917030334473 L 1.69127368927002 9.999917030334473 C 0.9306735992431641 9.999917030334473 0.4485034942626953 9.184447288513184 0.8150539398193359 8.517996788024902 L 4.623743534088135 1.593116760253906 C 4.813708782196045 1.247727394104004 5.156836032867432 1.075032234191895 5.499962329864502 1.075032234191895 Z" stroke="none" fill="#ff9a35"/>
  </g>
  <g id="Rectangle_595" data-name="Rectangle 595" transform="translate(23.132 1.586) rotate(45)" fill="none" stroke="#ff9a35" stroke-width="2">
    <rect width="10" height="22" rx="2" stroke="none"/>
    <rect x="1" y="1" width="8" height="20" rx="1" fill="none"/>
  </g>
  <g id="Ellipse_10" data-name="Ellipse 10" transform="translate(24.613) rotate(45)" fill="#fff" stroke="#ff9a35" stroke-width="2">
    <ellipse cx="5" cy="3" rx="5" ry="3" stroke="none"/>
    <ellipse cx="5" cy="3" rx="4" ry="2" fill="none"/>
  </g>
</svg>
