<svg xmlns="http://www.w3.org/2000/svg" width="19.61" height="19.61" viewBox="0 0 19.61 19.61"><defs><style>.a{fill:#2d4957;}</style></defs><path class="a" d="M9.805,0A9.805,9.805,0,1,0,19.61,9.805,9.806,9.806,0,0,0,9.805,0ZM6.956,14.822H4.568V7.638H6.956ZM5.762,6.657H5.746a1.245,1.245,0,1,1,.031-2.482,1.245,1.245,0,1,1-.016,2.482Zm9.8,8.165H13.179V10.979c0-.966-.346-1.625-1.21-1.625a1.307,1.307,0,0,0-1.225.873,1.635,1.635,0,0,0-.079.583v4.012H8.277s.031-6.51,0-7.184h2.388V8.655A2.371,2.371,0,0,1,12.817,7.47c1.571,0,2.749,1.027,2.749,3.233Zm0,0"/></svg>